<svg 
 xmlns="http://www.w3.org/2000/svg"
 xmlns:xlink="http://www.w3.org/1999/xlink"
 width="99px" height="89px">
<defs>
<linearGradient id="PSgrad_0" x1="0%" x2="0%" y1="100%" y2="0%">
  <stop offset="0%" stop-color="rgb(255,142,68)" stop-opacity="1" />
  <stop offset="50%" stop-color="rgb(249,19,98)" stop-opacity="1" />
  <stop offset="100%" stop-color="rgb(53,18,106)" stop-opacity="1" />
</linearGradient>

</defs>
<path fill-rule="evenodd"  fill="url(#PSgrad_0)"
 d="M70.995,29.945 L66.897,29.1000 C64.779,29.1000 61.126,29.798 55.936,29.394 L54.297,29.229 C57.848,25.157 60.272,22.644 61.570,21.690 C62.867,20.736 64.592,20.186 66.743,20.039 C71.661,19.673 76.048,18.141 79.907,15.444 C83.766,12.748 85.695,9.858 85.695,6.777 C85.695,5.786 85.353,4.943 84.671,4.245 C83.987,3.549 83.168,3.200 82.212,3.200 C79.754,3.200 77.261,4.072 74.734,5.814 C72.206,7.557 68.655,10.849 64.080,15.692 L62.851,16.957 C58.923,15.306 52.401,9.657 43.284,0.008 L39.596,20.094 L41.645,20.314 C42.225,15.545 43.199,13.160 44.565,13.160 C46.442,13.160 50.540,16.572 56.858,23.396 L51.787,29.064 L49.431,28.789 C44.172,28.276 39.647,28.019 35.857,28.019 C25.066,28.019 16.393,31.009 9.837,36.989 C3.281,42.969 0.002,50.875 0.002,60.707 C0.002,67.347 1.675,72.942 5.022,77.491 C7.617,80.976 11.143,83.765 15.599,85.856 C20.055,87.947 24.725,88.993 29.608,88.993 C34.935,88.993 39.955,87.690 44.667,85.085 C49.379,82.480 56.106,77.290 64.848,69.512 C68.365,66.394 71.114,64.101 73.095,62.633 C75.485,64.211 78.900,66.779 83.339,70.337 C87.778,73.896 91.039,76.703 93.122,78.757 C93.975,78.060 95.034,77.180 96.298,76.115 C97.288,75.272 98.073,74.611 98.654,74.134 L99.013,73.804 C92.285,67.971 85.831,62.872 79.651,58.506 C82.417,56.634 85.370,55.699 88.512,55.699 C90.561,55.699 92.610,56.121 94.659,56.965 C93.190,53.957 91.107,52.452 88.410,52.452 C85.780,52.452 82.143,53.957 77.500,56.965 C67.256,50.031 58.770,46.564 52.043,46.564 C46.169,46.564 38.964,49.646 30.428,55.809 C31.213,54.892 31.674,54.360 31.811,54.213 L39.647,45.573 L44.821,39.850 L48.867,35.393 C48.935,35.320 49.157,35.062 49.533,34.622 L50.455,34.677 C55.713,35.081 59.231,35.283 61.007,35.283 C63.192,35.283 64.703,35.549 65.540,36.081 C66.376,36.613 66.795,37.558 66.795,38.915 C66.795,40.162 66.641,41.648 66.334,43.372 L68.229,43.372 L68.485,42.382 C68.758,41.171 69.236,39.264 69.919,36.658 C70.602,33.981 71.114,32.018 71.456,30.770 L71.661,29.945 L70.995,29.945 ZM77.858,8.097 C79.326,8.097 80.061,8.685 80.061,9.858 C80.061,11.546 78.652,13.270 75.835,15.031 C73.018,16.792 70.243,17.673 67.512,17.673 C66.828,17.673 66.043,17.600 65.156,17.453 C70.687,11.216 74.921,8.097 77.858,8.097 L77.858,8.097 ZM61.570,69.402 C55.457,74.685 50.148,78.335 45.640,80.353 C41.133,82.370 36.044,83.379 30.376,83.379 C21.874,83.379 15.181,80.884 10.298,75.895 C7.975,73.548 6.114,70.677 4.715,67.283 C3.314,63.890 2.615,60.542 2.615,57.240 C2.615,50.893 4.851,45.353 9.325,40.621 C11.988,37.833 14.864,35.833 17.955,34.622 C21.045,33.412 24.845,32.806 29.352,32.806 C33.381,32.806 38.810,33.265 45.640,34.182 L46.921,34.347 L45.589,35.888 C33.125,50.233 22.352,61.734 13.269,70.392 L11.425,72.153 L12.808,73.859 C18.715,67.255 24.853,61.862 31.222,57.680 C37.590,53.498 42.840,51.407 46.972,51.407 C49.806,51.407 53.536,52.361 58.164,54.268 C62.791,56.176 67.136,58.561 71.200,61.422 C68.707,63.330 65.496,65.990 61.570,69.402 L61.570,69.402 Z"/>
</svg>